<svg xmlns="http://www.w3.org/2000/svg" viewBox="0 0 19 10" width="19" height="10" aria-label="Flag of United States" role="img">
  <title>United States</title>
  <rect width="19" height="10" fill="#b22234"/>
  <g fill="#fff">
    <rect y="1" width="19" height="1"/>
    <rect y="3" width="19" height="1"/>
    <rect y="5" width="19" height="1"/>
    <rect y="7" width="19" height="1"/>
    <rect y="9" width="19" height="1"/>
  </g>
  <rect width="7.6" height="5.4" fill="#3c3b6e"/>
  <!-- Simplified stars as dots -->
  <g fill="#fff">
    <circle cx="0.8" cy="0.6" r="0.1"/>
    <circle cx="1.6" cy="1.2" r="0.1"/>
    <circle cx="2.4" cy="0.6" r="0.1"/>
    <circle cx="3.2" cy="1.2" r="0.1"/>
    <circle cx="4.0" cy="0.6" r="0.1"/>
    <circle cx="4.8" cy="1.2" r="0.1"/>
    <circle cx="5.6" cy="0.6" r="0.1"/>
    <circle cx="6.4" cy="1.2" r="0.1"/>
    <circle cx="0.8" cy="2.0" r="0.1"/>
    <circle cx="1.6" cy="2.6" r="0.1"/>
    <circle cx="2.4" cy="2.0" r="0.1"/>
    <circle cx="3.2" cy="2.6" r="0.1"/>
    <circle cx="4.0" cy="2.0" r="0.1"/>
    <circle cx="4.8" cy="2.6" r="0.1"/>
    <circle cx="5.6" cy="2.0" r="0.1"/>
    <circle cx="6.4" cy="2.6" r="0.1"/>
    <circle cx="0.8" cy="3.4" r="0.1"/>
    <circle cx="1.6" cy="4.0" r="0.1"/>
    <circle cx="2.4" cy="3.4" r="0.1"/>
    <circle cx="3.2" cy="4.0" r="0.1"/>
    <circle cx="4.0" cy="3.4" r="0.1"/>
    <circle cx="4.8" cy="4.0" r="0.1"/>
    <circle cx="5.6" cy="3.4" r="0.1"/>
    <circle cx="6.4" cy="4.0" r="0.1"/>
  </g>
</svg>

